<svg height="16" viewBox="0 0 16 16" width="16" xmlns="http://www.w3.org/2000/svg"><path d="m.69565217 0h14.50931673c.3975156 0 .6956522.3.7950311.7v14.6c0 .4-.2981366.7-.6956522.7h-14.60869563c-.39751552 0-.69565217-.3-.69565217-.6v-14.7c0-.4.29813665-.7.69565217-.7zm1.70434783 13.6h2.3.1v-7.6h-2.4zm1.2-8.6c-.8 0-1.4-.7-1.4-1.4 0-.8.6-1.4 1.4-1.4s1.4.6 1.4 1.4c-.1.7-.7 1.4-1.4 1.4zm7.6 8.6h2.3v-4.2c0-2-.4-3.6-2.8-3.6-1.1 0-1.9.6-2.2 1.2v-1h-2.3v7.7h2.4v-3.8c0-1 .2-2 1.4-2s1.2 1.1 1.2 2z" fill="#fff" fill-rule="evenodd"/></svg>